#!OML:ASF H:\Terrain\Patient Classification 1\Walking\liu\liu.ASF
:FULLY-SPECIFIED
:DEGREES
315
root 9.34487 17.0218 28.0961 7.67892 -5.07804 -4.22195
lowerback -4.54569 2.44342 0.162098
upperback -1.07079 3.20053 3.07613
thorax 1.27701 1.60086 3.24801
lowerneck -16.7363 -4.72075 -13.6809
upperneck 19.7217 -5.97352 13.2328
head 9.83714 -2.39941 6.17836
rclavicle 2.05742e-014 2.3059e-014
rhumerus -25.6336 25.6186 -86.6673
rradius 46.525
rwrist -25.0944
rhand -34.1272 -30.3672
rfingers 7.12502
rthumb -7.30233 -60.2212
lclavicle 2.05742e-014 2.3059e-014
lhumerus -55.6118 -9.32077 93.8057
lradius 26.471
lwrist 5.44749
lhand -10.1951 -23.7162
lfingers 7.12502
lthumb 15.7958 5.65929
rfemur 1.80628 6.53476 29.4783
rtibia 17.953
rfoot -21.9823 1.95335
rtoes -14.9588
lfemur -43.2139 5.09469 -15.2933
ltibia 28.0554
lfoot -14.0585 9.40395
ltoes -10.3122
316
root 9.35923 17.0101 28.3016 7.54771 -5.39411 -4.22028
lowerback -4.73933 2.61265 0.0948378
upperback -0.588167 3.41318 3.07481
thorax 1.8662 1.69814 3.32261
lowerneck -17.8145 -4.99526 -13.5017
upperneck 19.7211 -6.23527 13.0758
head 10.0713 -2.48711 6.04783
rclavicle -1.46604e-015 -5.1684e-015
rhumerus -23.9938 25.8321 -85.9909
rradius 46.8489
rwrist -24.9164
rhand -33.4217 -29.8609
rfingers 7.12502
rthumb -6.62132 -59.7374
lclavicle -1.46604e-015 -5.1684e-015
lhumerus -55.461 -8.50873 92.8576
lradius 26.0097
lwrist 4.93856
lhand -9.4484 -23.5713
lfingers 7.12502
lthumb 16.5148 5.74587
rfemur 3.39445 6.23485 29.2863
rtibia 16.5272
rfoot -21.52 2.52665
rtoes -15.0422
lfemur -43.0147 4.10704 -14.5116
ltibia 25.6826
lfoot -14.6195 9.94967
ltoes -11.3832
317
root 9.37464 16.994 28.5041 7.43816 -5.67983 -4.29009
lowerback -4.81921 2.82378 0.119301
upperback -0.179252 3.68031 3.12887
thorax 2.31516 1.82427 3.40078
lowerneck -18.9063 -5.25369 -13.5317
upperneck 19.9454 -6.43158 12.9158
head 10.3843 -2.56112 5.96885
rclavicle 3.96078e-014 5.96354e-015
rhumerus -22.5101 26.2776 -85.2256
rradius 47.1594
rwrist -25.1695
rhand -32.6083 -27.5006
rfingers 7.12502
rthumb -5.83606 -57.4002
lclavicle 3.96078e-014 5.96354e-015
lhumerus -55.4495 -7.82136 92.1415
lradius 25.6736
lwrist 4.61568
lhand -9.16344 -23.4065
lfingers 7.12502
lthumb 16.7891 5.88759
rfemur 4.89597 5.65769 29.106
rtibia 15.1689
rfoot -20.9397 3.37442
rtoes -16.06
lfemur -42.8411 2.73222 -13.3524
ltibia 23.4569
lfoot -15.277 11.1121
ltoes -12.3909
318
root 9.38793 16.9662 28.7053 7.68513 -5.8601 -4.80395
lowerback -4.74555 3.03871 0.598516
upperback -0.408691 3.94597 3.25624
thorax 2.04594 1.96486 3.26718
lowerneck -18.8642 -5.27502 -13.6754
upperneck 20.1073 -6.44152 12.929
head 10.4417 -2.57723 6.00355
rclavicle -9.31803e-015 -3.22031e-014
rhumerus -22.1204 26.5934 -84.9512
rradius 47.4719
rwrist -25.3332
rhand -32.917 -26.5216
rfingers 7.12502
rthumb -6.13407 -56.4128
lclavicle -9.31803e-015 -3.22031e-014
lhumerus -56.4773 -7.16973 91.505
lradius 25.4709
lwrist 4.10457
lhand -9.38838 -23.5265
lfingers 7.12502
lthumb 16.5726 5.78585
rfemur 6.03698 5.38534 29.4637
rtibia 13.8561
rfoot -20.3253 3.78503
rtoes -17.0196
lfemur -43.0933 1.25889 -11.5577
ltibia 21.4236
lfoot -15.3505 12.4199
ltoes -8.78565
319
root 9.40355 16.9456 28.9124 8.01789 -6.12506 -5.31042
lowerback -6.00347 3.2792 1.22375
upperback -0.137291 4.17775 3.35993
thorax 3.0551 2.07662 3.13838
lowerneck -17.6093 -5.11713 -14.0916
upperneck 19.168 -6.27938 13.3528
head 9.87591 -2.52795 6.22707
rclavicle -2.38045e-014 -1.47101e-014
rhumerus -21.1302 26.8242 -84.3796
rradius 47.6373
rwrist -25.3345
rhand -34.3221 -27.2007
rfingers 7.12502
rthumb -7.49044 -57.0481
lclavicle -2.38045e-014 -1.47101e-014
lhumerus -56.7911 -6.3745 90.6816
lradius 25.0399
lwrist 3.38399
lhand -9.31485 -23.3927
lfingers 7.12502
lthumb 16.6433 5.91377
rfemur 7.2208 5.32073 29.7957
rtibia 12.3776
rfoot -19.6027 4.00828
rtoes -17.399
lfemur -43.5163 -0.16703 -9.66894
ltibia 19.7988
lfoot -15.4527 13.727
ltoes -7.55745
320
root 9.42762 16.9264 29.1192 8.13655 -6.43776 -5.36664
lowerback -5.57185 3.50444 1.39483
upperback -0.511631 4.49725 3.26015
thorax 2.43437 2.24378 2.91684
lowerneck -17.7111 -5.15247 -14.1041
upperneck 19.5426 -6.33314 13.2965
head 10.034 -2.5574 6.21423
rclavicle 6.18469e-014 7.55382e-015
rhumerus -21.2124 26.8462 -84.3905
rradius 47.968
rwrist -25.093
rhand -34.179 -26.706
rfingers 7.12502
rthumb -7.35233 -56.5583
lclavicle 6.18469e-014 7.55382e-015
lhumerus -57.9465 -5.97535 89.9799
lradius 24.6659
lwrist 3.13875
lhand -9.21417 -23.135
lfingers 7.12502
lthumb 16.7403 6.16327
rfemur 8.73911 5.08826 29.5469
rtibia 10.634
rfoot -18.7401 4.55573
rtoes -17.1042
lfemur -43.8806 -1.91519 -8.0933
ltibia 18.6702
lfoot -15.6408 15.6216
ltoes -8.82369
321
root 9.45267 16.9035 29.3385 7.9363 -6.66565 -5.31177
lowerback -5.68502 3.57048 1.37264
upperback -0.0587888 4.56829 3.23366
thorax 2.96318 2.27445 2.93737
lowerneck -18.7413 -5.29982 -13.9157
upperneck 19.5761 -6.38754 12.9982
head 10.2314 -2.56548 6.05951
rclavicle -2.39039e-014 -4.37326e-015
rhumerus -19.7837 27.1069 -83.7923
rradius 48.1502
rwrist -24.9992
rhand -33.3813 -26.4554
rfingers 7.12502
rthumb -6.58234 -56.3331
lclavicle -2.39039e-014 -4.37326e-015
lhumerus -57.878 -5.23403 89.0275
lradius 24.2976
lwrist 3.0188
lhand -8.92025 -23.2624
lfingers 7.12502
lthumb 17.0232 6.01167
rfemur 10.7532 5.27487 29.2662
rtibia 8.72777
rfoot -17.8181 4.52742
rtoes -16.9521
lfemur -43.8147 -3.72509 -6.77733
ltibia 17.7963
lfoot -16.2442 17.7433
ltoes -10.3509
322
root 9.47004 16.8698 29.5536 7.90146 -6.87883 -5.97191
lowerback -6.09487 3.71548 2.07956
upperback -0.291132 4.69796 3.43298
thorax 2.98756 2.34672 2.78182
lowerneck -16.0967 -5.0579 -14.4239
upperneck 18.5363 -6.23847 13.2884
head 9.3754 -2.58898 6.24706
rclavicle 1.26228e-014 -1.23246e-014
rhumerus -20.2771 27.4683 -83.9156
rradius 48.4772
rwrist -25.1875
rhand -34.4876 -26.7678
rfingers 7.12502
rthumb -7.65024 -56.6094
lclavicle 1.26228e-014 -1.23246e-014
lhumerus -59.3902 -4.31736 87.9168
lradius 24.1615
lwrist 2.42002
lhand -8.69473 -23.6234
lfingers 7.12502
lthumb 17.2403 5.63182
rfemur 12.7125 5.52798 29.8754
rtibia 6.74868
rfoot -16.7313 4.31881
rtoes -17.4418
lfemur -43.8042 -4.48739 -5.27874
ltibia 17.0571
lfoot -17.294 19.2494
ltoes -10.1226
323
root 9.48488 16.8179 29.7402 8.3903 -6.93188 -7.36945
lowerback -7.59312 3.99338 3.43271
upperback 1.40154 4.78759 3.76385
thorax 5.68005 2.40827 2.6042
lowerneck -19.7744 -5.70303 -14.1379
upperneck 18.3699 -6.66233 13.1036
head 10.0531 -2.65851 6.04731
rclavicle -2.79789e-014 -1.03368e-014
rhumerus -15.9919 27.4078 -81.7671
rradius 48.5502
rwrist -25.4208
rhand -35.4661 -26.9553
rfingers 7.12502
rthumb -8.59459 -56.7604
lclavicle -2.79789e-014 -1.03368e-014
lhumerus -56.3299 -3.22825 86.6033
lradius 23.3043
lwrist 1.64929
lhand -9.27735 -24.0367
lfingers 7.12502
lthumb 16.6794 5.26669
rfemur 13.8457 5.7754 31.3412
rtibia 5.16238
rfoot -15.7326 4.25392
rtoes -17.9356
lfemur -44.4587 -4.45154 -3.2401
ltibia 16.3227
lfoot -17.3697 19.9979
ltoes -6.69045
324
root 9.50663 16.7909 29.9654 8.29408 -7.24251 -6.8869
lowerback -5.20145 3.87709 2.71476
upperback -1.57826 4.9679 3.62984
thorax 1.18867 2.48717 2.5209
lowerneck -13.8492 -4.43525 -13.8228
upperneck 18.5865 -5.69693 12.7543
head 8.85013 -2.41898 6.03042
rclavicle 2.68111e-014 3.57812e-015
rhumerus -22.1022 27.4487 -84.7918
rradius 49.4361
rwrist -24.46
rhand -34.2035 -26.8377
rfingers 7.12502
rthumb -7.37599 -56.6892
lclavicle 2.68111e-014 3.57812e-015
lhumerus -62.6541 -2.61513 85.3385
lradius 23.3891
lwrist 1.06607
lhand -9.70229 -24.0762
lfingers 7.12502
lthumb 16.2703 5.26111
rfemur 17.3158 6.00165 30.6982
rtibia -6.36111e-015
rfoot -13.1199 4.07105
rtoes -17.9282
lfemur -44.8869 -5.30315 -3.05337
ltibia 16.7774
lfoot -17.8765 20.6592
ltoes -4.43457
325
root 9.51521 16.7736 30.1531 7.88883 -7.55667 -5.99799
lowerback -5.57243 4.09327 1.69493
upperback -0.875684 5.27162 3.46701
thorax 2.03656 2.6352 3.00095
lowerneck -13.7751 -4.72866 -14.3037
upperneck 17.7474 -5.99605 13.035
head 8.62474 -2.56613 6.15004
rclavicle -4.22417e-016 -3.4191e-014
rhumerus -20.6975 26.8429 -83.7403
rradius 49.5904
rwrist -24.3464
rhand -31.9437 -26.3932
rfingers 7.12502
rthumb -5.19435 -56.3095
lclavicle -4.22417e-016 -3.4191e-014
lhumerus -61.9652 -1.69916 84.0385
lradius 22.6666
lwrist 0.00845359
lhand -9.35491 -23.7486
lfingers 7.12502
lthumb 16.6048 5.56104
rfemur 18.2731 6.1433 29.6421
rtibia -4.13472e-014
rfoot -12.7085 4.26098
rtoes -17.4829
lfemur -44.8029 -5.41504 -3.9612
ltibia 17.1268
lfoot -19.3769 19.846
ltoes 0.822564
